<?xml version="1.0" encoding="UTF-8"?>
<svg id="Layer_2" data-name="Layer 2" xmlns="http://www.w3.org/2000/svg" viewBox="0 0 444.11 500.35">
  <g id="Layer_1-2" data-name="Layer 1">
    <path d="M426.02,335.34l-.44-15.55c-.59-20.98-2.6-41.4-5.46-61.73l-.5-15.45c-2.16-29.55-5.11-58.35-11.57-87.52l-9.41-36.57c-3.03-11.79-7.45-22.63-12.2-33.76C357.01,15.77,308.38,6.17,238.46.73c-24.18-1.88-47.98-.1-71.7,5.07-9.63,2.1-18.66,5.7-26.48,11.54-10.24,7.66-17.14,25.74-8.04,36.9L47.99,241.62c-13.7,6.44-24.35,17.94-29.79,32.61C7.67,302.62,2.14,331.74.1,362.01c-.47,13.09.74,25.14,4.73,37.41,6.71,14.94,18.85,22.82,33.77,29.55-11.04,32.8,10.43,67.05,44.4,70.99,31.13,3.61,57.88-18.72,60.19-49.82,28.1,3.12,55.54,4.67,83.68,5.34l57.74,1.39c4.66,23.21,23.52,40.85,47.34,43.2,33.17,3.27,60.55-22.75,59.34-55.92,27.84-8.79,49.7-25.47,52.21-55.65l.6-22.41c.36-13.6-4.61-29.83-18.07-30.76ZM89.48,473.34c-14.75,0-26.71-11.96-26.71-26.71s11.96-26.71,26.71-26.71,26.71,11.96,26.71,26.71-11.96,26.71-26.71,26.71ZM260.98,307.42c-27.57-1.14-54.42-3.4-81.72-7.42-15.44-2.27-35.08-5.93-47.43-13.78-3.18-2.02-6.81-7.95-3.85-11.07,2.67-2.81,7.71-3.28,11.12-5.11l41.32,10.85,6.53,14.46,13.14-5.37-40.33-96.7c-4.95,1.24-8.88,3.34-13.27,5.58l5.93,14.51-21.37,36.71c-1.3,2.24-5.58,2.83-7.89,3.43-3.86-13.04-9.04-23.25-22.23-22.61,15.07-45.59,31.93-91.98,53.36-135.65,5.73-11.68,12.12-22.68,19.97-32.83,4.45-5.75,10.15-8.52,16.96-10.29,16.76-4.37,33.4-5.23,50.92-5.25,29.32-.03,69.05,4.6,87.39,27.68,8.56,10.77,13.37,23.44,15.08,36.93l2.23,17.62c.5,23.02.24,45.59-3.64,68.01-1.72,9.95-3.05,19.29-6.06,29.12-1.6,5.21-3.2,10.11-3.93,15.05-3.99,1.94-6.32,6.37-8.12,10.87-3.8,9.52-7.26,18.7-12.2,27.65-10.61,19.19-29.94,28.55-51.93,27.63ZM140.83,252.55l15.99-28.12,7.86,18.11-23.85,10.01ZM168.24,251.43l7.7,18.51-31.33-8.22,23.63-10.28ZM337.5,473.37c-14.76,0-26.73-11.97-26.73-26.73s11.97-26.73,26.73-26.73,26.73,11.97,26.73,26.73-11.97,26.73-26.73,26.73Z"/>
  </g>
</svg>