<?xml version="1.0" encoding="UTF-8"?>
<svg id="Layer_2" data-name="Layer 2" xmlns="http://www.w3.org/2000/svg" viewBox="0 0 1416.82 292.33">
  <defs>
    <style>
      .cls-1 {
        fill: #fff;
      }
    </style>
  </defs>
  <g id="Layer_1-2" data-name="Layer 1">
    <g>
      <path class="cls-1" d="M1146.84,73.73l.19,1.39c-1.59-.65-3.74-.26-5.12-.25l-.19-2.03c1.66-.13,3.26.08,5.12.89Z"/>
      <g>
        <path class="cls-1" d="M1048.88,73.8l5.1.27,5,.56,5.97.42c1,.07,2.1-.32,3.09-.07,11.29,2.8,18.62.09,16.63,3.85l-5.75.06c.07-.81-.67-1.44-1.52-1.07-.39.17-.68.5-.56,1.05l-13.05.7-3.99.28-11.96.72-3.19.26-19.25,1.49-42.63,2.79-104.67,10.81-9.93,1.4c5.51,1.13,10.55.13,16.84-.44l139.99-12.67,20.79-1.32,2.19-.03,12.83-.9,3.03-.03c46.1-2.46,92.13-4.75,139.08-2.79,64.21,2.67,126.93,10.46,190.77,20.35l-9.04,24.66,17.13-.71c.37,3.94-2.12,6.26-5.37,6.79l-11.69,1.9c4.45-3.01,9.81-1,11.44-7.12l-12.1.41-3.3,10.72,13.15.79,2.44.82c.29.1-.82.77,0,2-2.87,1.38-5.77,1.57-9.67,2.19,2.26,2.62,6.94.81,7.07,3.34.06,1.15-.65,1.85-2.04,2.19-10.14,2.43-14.38-1.31-16.39,4.14l-12.59,34.12-2.15,6.94-13.33,34.46c-1.09,2.81-3.4,4.91-6.21,5.78l-13.39,4.17c-8.79-66.79-64.37-117.25-131.94-118.47-71.04.02-128.09,52.54-137.46,122.75l-156.3,2.45-41.31-16.93c-21.91-8.98-43.61-16.55-67.3-18.69l-57.62-5.21-122.93-3.79c-61.01-1.88-120.77-.21-182.23,2.42l47.49-18.61c26.35-9.32,52.51-15.19,80.28-18.72l74.54-9.48,36.68-3.38c-1.98-3.48-5.5-.89-7.49-.73l-11.3.9-17.98,1.87-11.05,1-12.86,1.05-75.58,7.69c-19.48,1.98-37.75,6.29-56.13,12.82l-63.33,22.51c-2.62.93-4.52,3.12-4.96,4.96-.65,2.75.46,4.93,2.08,7.34l40.68,39.83-86.19,1.59c-4.57-31.97-20.24-60.63-44.83-80.86-48.55-39.96-119.04-34.35-160.9,12.67-17.69,19.87-28.83,45.09-31.45,72.42l-85.26,6.75c-11.45.91-22.37.33-33.47-2.45-1.54-1.01-2.41.89-.91,1.94,7.16,5.57,15.8,7.12,23.75,10.7,9.93,4.48,19.4,10.23,26.98,18.86-9.37-5.9-17.73-12.64-28.58-16.55-8.16-2.93-17.39-3.84-24.42-9.76-4.94-4.16-7.93-15.2-5.45-21.27,2.71-6.64,9.51-10.91,15.59-14.4,28.02-16.08,57.25-28.4,88.87-38.87-12.68,13.99-25.64,26.05-36.35,41.74,8.65-2.11,14.15-8.02,19.67-13.6l6.4-6.47,1.86-2.18c1.29-1.21,3.42-2.39,3.91-4.36.46-.07,1.46-.27,1.65-.77l.59-1.6,20.05-19.44c2.02-1.47,4.27-3.06,4.72-5.75,1.98.08,3.36-1.76,4.42-3.51s-.26-3.34-1.79-5.6l25.81-17.62c11.36-6.32,22.62-11.82,35.06-15.89,24.32-7.96,48.85-11.09,74.58-11.81,27.08-.75,53.02.54,79.93,3.5l48.01,5.29,79.75,13.66c4.78.82,9.12,3.18,13.5.96l-87.48-15.67c-1.15-.21-1.85-.93-2.32-1.37l69.64-6.87,19.5-18.77c14.32-13.79,28.72-26.96,41.12-41.88l.68,1.25-25.46,29.04-28.36,29.65,299.89-26.88,57.56-5.02c8.8-.77,17.56-2.54,26.15-5.21-4.13-.94-7.78.69-11.59,1.28l-14.21,2.2,10.17-48.95,25.08,6.21c8.94,9.19,9.46,22.4,7.87,35.44l69.43-12.52,10.16-.84,32.81.05,13.16.88,16.98,1.01,12.04.93,18.95,1.81ZM858.78,98.43l-25.98,2.54-94.5,11.37-72.81,10.04-16.65,2.54-30.94,4.88-21.04,3.34v1.4s31.99-4.79,31.99-4.79l32.02-4.93,34.02-4.83,8.16-1.11,68.06-8.75,62.27-7.4,19.51-2c2.13-.22,3.82-.54,5.81-.85l9.45-1.45-.27-1.15-9.09,1.13ZM491.83,149.42c-2.26-1.28-3.44-.5-4.08.02,1.85.8,3.02.54,4.08-.02Z"/>
        <path class="cls-1" d="M1384.77,175.75c-.56,1.29-1.32,2.5-.87,4.09-2.26-.1-4.18.88-6.09,1.91l-1.98,1.07c-3.41-.39-6.66.98-10.11,2.33l9.88-29.29-.31,15.97,6.54.1c2.05.03,3.62,2.24,2.93,3.81Z"/>
        <path class="cls-1" d="M1416.82,188.03c-.95-.09-1.55.3-2.06.34l-51.85,3.8c-.88-3.08,1.82-5.12,2.82-7.02,3.4,1.8,7.08-.7,10.11-2.33.7.06,1.61-.65,1.98-1.07,2.48.47,4.78.17,6.09-1.91,1.07-1.05,2.56-1.92,2.09-3.81,7.86-.34,15.93-.02,23.64,3.02,4.46,1.76,6.01,5.17,7.18,8.97Z"/>
      </g>
      <g>
        <path class="cls-1" d="M849.55,15.19l11.15,2.04c34.84,3.83,68.51,10.06,102.98,16.69l52.39,10.09c-7.58-4.13-15.92-4.46-24.26-6.13l-19.3-3.86c-37.52-7.5-74.66-14.63-112.05-18.69l2.03-1.37c.36-.24.19-.61-.22-1.02-1.45-1.64-3.26-2.94-5.38-4.16l-9.71-5.59-.26-1.74,61.63,7.01c.45,1.22,1.13,1.5,2.14,1.6l8.71.91.54-.89-.39-1.16,84.47,8.62,55.72,29.56,81.13,24.66c-.61,1.05-.91,2.21-1.03,3.43l-16.77.27c-.66-.46-1.27-.53-1.76-.61-.7-.11-1.46.15-1.38,1.13l-15.98.81c-3.79.19-7.25.37-10.89-.08l-24.7-3.05-3.46-.08-5.64-.76-5-.28c-1.49-.08-3.39-.64-4.94-.75l-11.41-.82-13.06-.91-12.99-.97-14.92-1.08-16.12-.92c-5.72-.33-11.93.02-17.44.22l-15.67.56c-3.65.13-8.61,2.22-12.11.11-8.29-5.01-16.42-9.66-25.8-12.27l-47.74-13.28c-66.63-18.54-153.99-21.46-223.24-13.97-33.54,3.63-65.45,9.36-98.16,19.61l6.92-13.72c2.46-4.88,4.23-11.38,9-14.92,31.68-8.28,63.42-14.08,96.19-17.13,59.73-5.56,126.19-.48,185.12,8.13,3.21,3.79,7.33,3.94,11.64,4.73ZM920.37,10.78l-.5.53c4.67,1.71,9.51,3.02,14.5,2.49l.5-.48c-4.77-1.12-9.57-2.59-14.49-2.54ZM935.38,13.85l-.49.46c1.24.63,2.85.95,4.09-.04-1.56-.79-2.64-.48-3.6-.42ZM941.84,14.78c-1.87-.84-2.46,1.56-.21,1.2,1.1.27,1.46-1.07.21-1.2ZM956.77,18.35c-4.18-1.34-8.4-3.31-12.96-2.11,4.27,1.33,7.67,3.33,12.96,2.11ZM1038.73,48.42c-6.85-2.1-13.92-4.84-22.08-4.29,6.93,2.06,13.54,4.87,22.08,4.29ZM1074.91,56.02l-34.45-7.55c-.04.38-.52.92-.65,1.03l22.86,5.52c4.09.99,7.89,2.2,11.69,1.8l.55-.79ZM1075.37,56.84l-.5.51c.75.79,2.31.87,3.09-.13-1.21-.67-1.98-.43-2.59-.37ZM1095.04,61.51c-5.27-1.64-10.27-3.95-16.34-3.36,5.28,1.64,10.26,3.95,16.34,3.36ZM1097.84,61.78c-1.87-.84-2.46,1.56-.21,1.2,1.1.27,1.46-1.07.21-1.2ZM1102.03,62.87c-2.16-.62-2.55,1.38.06,1.07l-.06-1.07ZM1103.38,63.8l-.52.57c3.76,1.04,7.43,2.65,12.83,2.17-3.81-1.83-8.07-2.87-12.31-2.73ZM1117.53,67.31l-.65.02.65.02h.68l.65-.02-.65-.02h-.68Z"/>
        <path class="cls-1" d="M360.77,99.17l-.96-1.01c61.65-29.46,123.53-56.89,190.46-76.42.13.98-.61,3.67-1.91,4.32-7.2.64-13.4,2.28-20.44,4.7-39.86,13.68-78.92,27.99-117.28,45.57l-49.86,22.85Z"/>
      </g>
    </g>
  </g>
</svg>